<?xml version="1.0" encoding="UTF-8"?>
<!DOCTYPE svg PUBLIC "-//W3C//DTD SVG 1.1//EN" "http://www.w3.org/Graphics/SVG/1.1/DTD/svg11.dtd">
<svg xmlns="http://www.w3.org/2000/svg" version="1.1" width="280px" height="66px" style="shape-rendering:geometricPrecision; text-rendering:geometricPrecision; image-rendering:optimizeQuality; fill-rule:evenodd; clip-rule:evenodd" xmlns:xlink="http://www.w3.org/1999/xlink">
<g><path style="opacity:1" fill="#abc6d5" d="M 6.5,0.5 C 25.8333,0.5 45.1667,0.5 64.5,0.5C 64.5,0.833333 64.5,1.16667 64.5,1.5C 45.326,1.16971 26.326,1.50304 7.5,2.5C 6.83333,2.5 6.5,2.83333 6.5,3.5C 4.97306,3.42702 3.97306,4.09368 3.5,5.5C 3.16667,5.5 2.83333,5.5 2.5,5.5C 2.5,4.83333 2.5,4.16667 2.5,3.5C 4.23033,2.97439 5.56366,1.97439 6.5,0.5 Z"/></g>
<g><path style="opacity:1" fill="#c1d5e0" d="M 66.5,1.5 C 67.8333,1.5 68.5,2.16667 68.5,3.5C 67.5,3.16667 66.8333,2.5 66.5,1.5 Z"/></g>
<g><path style="opacity:1" fill="#bed3de" d="M 6.5,0.5 C 5.56366,1.97439 4.23033,2.97439 2.5,3.5C 3.03472,1.55437 4.36805,0.554374 6.5,0.5 Z"/></g>
<g><path style="opacity:1" fill="#98b9cc" d="M 6.5,3.5 C 6.5,2.83333 6.83333,2.5 7.5,2.5C 11.4713,1.79554 12.8046,3.12887 11.5,6.5C 11.1667,6.5 10.8333,6.5 10.5,6.5C 10.5,5.5 10.5,4.5 10.5,3.5C 9.16667,3.5 7.83333,3.5 6.5,3.5 Z"/></g>
<g><path style="opacity:1" fill="#a1bfd0" d="M 7.5,2.5 C 26.326,1.50304 45.326,1.16971 64.5,1.5C 64.5,1.83333 64.5,2.16667 64.5,2.5C 62.8333,2.5 61.1667,2.5 59.5,2.5C 59.5,3.83333 59.5,5.16667 59.5,6.5C 43.5,6.5 27.5,6.5 11.5,6.5C 12.8046,3.12887 11.4713,1.79554 7.5,2.5 Z"/></g>
<g><path style="opacity:1" fill="#98b9cc" d="M 64.5,2.5 C 65.8333,3.16667 66.8333,4.16667 67.5,5.5C 67.6602,7.19919 67.4935,8.86586 67,10.5C 66.0138,11.1712 64.8471,11.1712 63.5,10.5C 63.5,9.83333 63.5,9.16667 63.5,8.5C 64.5,8.5 65.5,8.5 66.5,8.5C 66.3491,4.686 64.3491,3.01934 60.5,3.5C 60.5,4.5 60.5,5.5 60.5,6.5C 60.1667,6.5 59.8333,6.5 59.5,6.5C 59.5,5.16667 59.5,3.83333 59.5,2.5C 61.1667,2.5 62.8333,2.5 64.5,2.5 Z"/></g>
<g><path style="opacity:1" fill="#dfe9ef" d="M 99.5,4.5 C 98.5,4.5 97.5,4.5 96.5,4.5C 96.5,3.16667 96.5,1.83333 96.5,0.5C 97.5,0.5 98.5,0.5 99.5,0.5C 99.5,1.83333 99.5,3.16667 99.5,4.5 Z"/></g>
<g><path style="opacity:1" fill="#8bb0c5" d="M 6.5,3.5 C 7.83333,3.5 9.16667,3.5 10.5,3.5C 10.5,4.5 10.5,5.5 10.5,6.5C 8.82124,6.28519 7.82124,6.95186 7.5,8.5C 6.5,8.5 5.5,8.5 4.5,8.5C 4.39151,6.4862 5.05817,4.81953 6.5,3.5 Z"/></g>
<g><path style="opacity:1" fill="#98b9cc" d="M 6.5,3.5 C 5.05817,4.81953 4.39151,6.4862 4.5,8.5C 5.5,8.5 6.5,8.5 7.5,8.5C 7.5,9.16667 7.5,9.83333 7.5,10.5C 6.5041,10.4142 5.67076,10.7476 5,11.5C 4.72158,10.5842 4.22158,9.91753 3.5,9.5C 3.5,8.16667 3.5,6.83333 3.5,5.5C 3.97306,4.09368 4.97306,3.42702 6.5,3.5 Z"/></g>
<g><path style="opacity:1" fill="#8cb1c6" d="M 63.5,8.5 C 63.1788,6.95186 62.1788,6.28519 60.5,6.5C 60.5,5.5 60.5,4.5 60.5,3.5C 64.3491,3.01934 66.3491,4.686 66.5,8.5C 65.5,8.5 64.5,8.5 63.5,8.5 Z"/></g>
<g><path style="opacity:1" fill="#acc7d6" d="M 64.5,0.5 C 65.4916,0.32842 66.1583,0.661754 66.5,1.5C 66.8333,2.5 67.5,3.16667 68.5,3.5C 69.8231,19.0688 69.8231,34.7355 68.5,50.5C 66.9731,50.427 65.9731,51.0937 65.5,52.5C 65.1667,52.5 64.8333,52.5 64.5,52.5C 64.5,52.1667 64.5,51.8333 64.5,51.5C 65.5,50.1667 66.5,48.8333 67.5,47.5C 68.8333,33.5 68.8333,19.5 67.5,5.5C 66.8333,4.16667 65.8333,3.16667 64.5,2.5C 64.5,2.16667 64.5,1.83333 64.5,1.5C 64.5,1.16667 64.5,0.833333 64.5,0.5 Z"/></g>
<g><path style="opacity:1" fill="#d2e0e8" d="M 96.5,4.5 C 97.5,4.5 98.5,4.5 99.5,4.5C 99.5,23.1667 99.5,41.8333 99.5,60.5C 98.5,60.5 97.5,60.5 96.5,60.5C 96.5,41.8333 96.5,23.1667 96.5,4.5 Z"/></g>
<g><path style="opacity:1" fill="#d4e2ea" d="M 129.5,7.5 C 129.5,8.83333 129.5,10.1667 129.5,11.5C 125.5,10.1667 125.5,8.83333 129.5,7.5 Z"/></g>
<g><path style="opacity:1" fill="#b4ccda" d="M 131.5,7.5 C 134.572,7.18259 137.572,7.51592 140.5,8.5C 140.058,9.73867 139.391,10.7387 138.5,11.5C 137.143,10.3146 135.643,9.31461 134,8.5C 132.251,8.74831 131.418,9.74831 131.5,11.5C 131.167,11.5 130.833,11.5 130.5,11.5C 130.433,10.0413 130.766,8.70792 131.5,7.5 Z"/></g>
<g><path style="opacity:1" fill="#d5e2ea" d="M 142.5,8.5 C 142.917,7.87605 143.584,7.54272 144.5,7.5C 145.713,7.74716 146.38,8.41383 146.5,9.5C 145.167,9.16667 143.833,8.83333 142.5,8.5 Z"/></g>
<g><path style="opacity:1" fill="#d7e4eb" d="M 161.5,9.5 C 160.5,9.5 159.5,9.5 158.5,9.5C 159.74,7.01548 160.74,7.01548 161.5,9.5 Z"/></g>
<g><path style="opacity:1" fill="#b4ccda" d="M 173.5,8.5 C 174.906,8.97306 175.573,9.97306 175.5,11.5C 174.833,11.5 174.167,11.5 173.5,11.5C 172.167,8.83333 170.833,8.83333 169.5,11.5C 168.833,11.5 168.167,11.5 167.5,11.5C 168.687,9.02458 170.687,8.02458 173.5,8.5 Z"/></g>
<g><path style="opacity:1" fill="#cadbe4" d="M 173.5,8.5 C 173.5,8.16667 173.5,7.83333 173.5,7.5C 175.635,7.14696 176.968,7.98029 177.5,10C 177.164,11.0299 176.497,11.5299 175.5,11.5C 175.573,9.97306 174.906,8.97306 173.5,8.5 Z"/></g>
<g><path style="opacity:1" fill="#d7e4eb" d="M 184.5,9.5 C 183.5,9.5 182.5,9.5 181.5,9.5C 182.74,7.01548 183.74,7.01548 184.5,9.5 Z"/></g>
<g><path style="opacity:1" fill="#a3c0d1" d="M 138.5,11.5 C 138.573,13.0269 137.906,14.0269 136.5,14.5C 136.663,10.9652 135.33,9.96519 132.5,11.5C 132.167,11.5 131.833,11.5 131.5,11.5C 131.418,9.74831 132.251,8.74831 134,8.5C 135.643,9.31461 137.143,10.3146 138.5,11.5 Z"/></g>
<g><path style="opacity:1" fill="#c6d8e3" d="M 142.5,8.5 C 143.833,8.83333 145.167,9.16667 146.5,9.5C 146.5,10.5 146.5,11.5 146.5,12.5C 145.395,11.3995 144.062,10.7329 142.5,10.5C 142.5,9.83333 142.5,9.16667 142.5,8.5 Z"/></g>
<g><path style="opacity:1" fill="#c1d5e0" d="M 173.5,7.5 C 173.5,7.83333 173.5,8.16667 173.5,8.5C 170.687,8.02458 168.687,9.02458 167.5,11.5C 166.566,10.4324 166.232,9.09903 166.5,7.5C 168.833,7.5 171.167,7.5 173.5,7.5 Z"/></g>
<g><path style="opacity:1" fill="#9fbed0" d="M 3.5,9.5 C 4.22158,9.91753 4.72158,10.5842 5,11.5C 5.67076,10.7476 6.5041,10.4142 7.5,10.5C 7.5,21.8333 7.5,33.1667 7.5,44.5C 6.5,44.5 5.5,44.5 4.5,44.5C 4.5,45.8333 4.5,47.1667 4.5,48.5C 3.50452,35.6774 3.17119,22.6774 3.5,9.5 Z"/></g>
<g><path style="opacity:1" fill="#a1bfd0" d="M 67.5,5.5 C 68.8333,19.5 68.8333,33.5 67.5,47.5C 68.2436,44.0504 66.9103,42.3838 63.5,42.5C 63.5,31.8333 63.5,21.1667 63.5,10.5C 64.8471,11.1712 66.0138,11.1712 67,10.5C 67.4935,8.86586 67.6602,7.19919 67.5,5.5 Z"/></g>
<g><path style="opacity:1" fill="#bed2df" d="M 129.5,7.5 C 130.167,7.5 130.833,7.5 131.5,7.5C 130.766,8.70792 130.433,10.0413 130.5,11.5C 130.167,11.5 129.833,11.5 129.5,11.5C 129.5,10.1667 129.5,8.83333 129.5,7.5 Z"/></g>
<g><path style="opacity:1" fill="#c0d4e0" d="M 158.5,9.5 C 159.5,9.5 160.5,9.5 161.5,9.5C 162.338,9.84171 162.672,10.5084 162.5,11.5C 161.167,11.5 159.833,11.5 158.5,11.5C 158.5,10.8333 158.5,10.1667 158.5,9.5 Z"/></g>
<g><path style="opacity:1" fill="#c0d4df" d="M 181.5,9.5 C 182.5,9.5 183.5,9.5 184.5,9.5C 184.833,10.1667 185.167,10.8333 185.5,11.5C 183.833,11.5 182.167,11.5 180.5,11.5C 180.833,10.8333 181.167,10.1667 181.5,9.5 Z"/></g>
<g><path style="opacity:1" fill="#a5c1d2" d="M 173.5,11.5 C 173.5,12.5 173.5,13.5 173.5,14.5C 172.167,14.5 170.833,14.5 169.5,14.5C 169.5,13.5 169.5,12.5 169.5,11.5C 170.833,8.83333 172.167,8.83333 173.5,11.5 Z"/></g>
<g><path style="opacity:1" fill="#b0c9d8" d="M 180.5,12.5 C 180.5,12.1667 180.5,11.8333 180.5,11.5C 182.167,11.5 183.833,11.5 185.5,11.5C 185.5,12.1667 185.5,12.8333 185.5,13.5C 183.958,12.6993 182.292,12.366 180.5,12.5 Z"/></g>
<g><path style="opacity:1" fill="#98b9cc" d="M 132.5,11.5 C 135.33,9.96519 136.663,10.9652 136.5,14.5C 135.167,14.5 133.833,14.5 132.5,14.5C 133.116,13.2022 133.116,12.2022 132.5,11.5 Z"/></g>
<g><path style="opacity:1" fill="#98b9cc" d="M 163.5,14.5 C 163.5,14.8333 163.5,15.1667 163.5,15.5C 163.5,17.1667 163.5,18.8333 163.5,20.5C 163.167,20.5 162.833,20.5 162.5,20.5C 162.949,18.0225 162.283,16.0225 160.5,14.5C 159.478,14.8555 158.811,15.5222 158.5,16.5C 158.167,16.5 157.833,16.5 157.5,16.5C 158.533,13.4008 160.533,12.7341 163.5,14.5 Z"/></g>
<g><path style="opacity:1" fill="#9dbcce" d="M 180.5,12.5 C 182.292,12.366 183.958,12.6993 185.5,13.5C 186.338,13.8417 186.672,14.5084 186.5,15.5C 186.784,17.4147 186.451,19.0813 185.5,20.5C 185.66,18.8008 185.494,17.1341 185,15.5C 183.667,14.1667 182.333,14.1667 181,15.5C 180.506,17.1341 180.34,18.8008 180.5,20.5C 180.167,20.5 179.833,20.5 179.5,20.5C 179.5,18.8333 179.5,17.1667 179.5,15.5C 179.557,14.391 179.89,13.391 180.5,12.5 Z"/></g>
<g><path style="opacity:1" fill="#cedde6" d="M 40.5,15.5 C 38.8333,15.5 37.1667,15.5 35.5,15.5C 37.1667,12.8333 38.8333,12.8333 40.5,15.5 Z"/></g>
<g><path style="opacity:1" fill="#b6cdda" d="M 142.5,10.5 C 144.062,10.7329 145.395,11.3995 146.5,12.5C 146.5,14.1667 146.5,15.8333 146.5,17.5C 145.167,17.5 143.833,17.5 142.5,17.5C 142.5,15.1667 142.5,12.8333 142.5,10.5 Z"/></g>
<g><path style="opacity:1" fill="#aac5d5" d="M 158.5,11.5 C 159.833,11.5 161.167,11.5 162.5,11.5C 163.11,12.391 163.443,13.391 163.5,14.5C 160.533,12.7341 158.533,13.4008 157.5,16.5C 157.167,16.5 156.833,16.5 156.5,16.5C 156.402,14.4471 157.069,12.7804 158.5,11.5 Z"/></g>
<g><path style="opacity:1" fill="#a9c4d4" d="M 132.5,14.5 C 133.833,14.5 135.167,14.5 136.5,14.5C 136.443,15.609 136.11,16.609 135.5,17.5C 133.901,17.2322 132.568,17.5655 131.5,18.5C 130.596,19.209 130.263,20.209 130.5,21.5C 129.662,21.1583 129.328,20.4916 129.5,19.5C 130.11,17.5659 131.11,15.8993 132.5,14.5 Z"/></g>
<g><path style="opacity:1" fill="#b1cad8" d="M 169.5,14.5 C 170.833,14.5 172.167,14.5 173.5,14.5C 173.5,15.1667 173.5,15.8333 173.5,16.5C 172.167,16.5 170.833,16.5 169.5,16.5C 169.5,15.8333 169.5,15.1667 169.5,14.5 Z"/></g>
<g><path style="opacity:1" fill="#89afc5" d="M 185.5,20.5 C 185.167,20.5 184.833,20.5 184.5,20.5C 184.5,19.1667 184.5,17.8333 184.5,16.5C 183.5,16.5 182.5,16.5 181.5,16.5C 181.5,17.8333 181.5,19.1667 181.5,20.5C 181.167,20.5 180.833,20.5 180.5,20.5C 180.34,18.8008 180.506,17.1341 181,15.5C 182.333,14.1667 183.667,14.1667 185,15.5C 185.494,17.1341 185.66,18.8008 185.5,20.5 Z"/></g>
<g><path style="opacity:1" fill="#b9cfdc" d="M 35.5,15.5 C 37.1667,15.5 38.8333,15.5 40.5,15.5C 41.8333,16.5 41.8333,17.5 40.5,18.5C 38.7354,17.5386 36.7354,17.2053 34.5,17.5C 34.8333,16.8333 35.1667,16.1667 35.5,15.5 Z"/></g>
<g><path style="opacity:1" fill="#87adc3" d="M 162.5,20.5 C 162.167,20.5 161.833,20.5 161.5,20.5C 161.5,19.1667 161.5,17.8333 161.5,16.5C 160.5,16.5 159.5,16.5 158.5,16.5C 158.811,15.5222 159.478,14.8555 160.5,14.5C 162.283,16.0225 162.949,18.0225 162.5,20.5 Z"/></g>
<g><path style="opacity:1" fill="#7ca6be" d="M 184.5,20.5 C 183.5,20.5 182.5,20.5 181.5,20.5C 181.5,19.1667 181.5,17.8333 181.5,16.5C 182.5,16.5 183.5,16.5 184.5,16.5C 184.5,17.8333 184.5,19.1667 184.5,20.5 Z"/></g>
<g><path style="opacity:1" fill="#acc7d6" d="M 34.5,17.5 C 36.7354,17.2053 38.7354,17.5386 40.5,18.5C 38.3792,18.3253 36.3792,18.6586 34.5,19.5C 34.5,18.8333 34.5,18.1667 34.5,17.5 Z"/></g>
<g><path style="opacity:1" fill="#a8c4d4" d="M 179.5,15.5 C 179.5,17.1667 179.5,18.8333 179.5,20.5C 178.833,20.5 178.167,20.5 177.5,20.5C 177.796,18.597 178.463,16.9303 179.5,15.5 Z"/></g>
<g><path style="opacity:1" fill="#a3c0d1" d="M 40.5,18.5 C 40.5,18.8333 40.5,19.1667 40.5,19.5C 38.4352,19.5172 36.4352,19.8505 34.5,20.5C 34.5,20.1667 34.5,19.8333 34.5,19.5C 36.3792,18.6586 38.3792,18.3253 40.5,18.5 Z"/></g>
<g><path style="opacity:1" fill="#a2c0d1" d="M 131.5,18.5 C 131.5,19.5 131.5,20.5 131.5,21.5C 132.791,21.7373 133.791,21.404 134.5,20.5C 135.167,20.5 135.833,20.5 136.5,20.5C 136.5,21.1667 136.5,21.8333 136.5,22.5C 134.099,24.0622 132.099,23.7288 130.5,21.5C 130.263,20.209 130.596,19.209 131.5,18.5 Z"/></g>
<g><path style="opacity:1" fill="#99b9cc" d="M 135.5,17.5 C 135.047,18.4584 134.381,19.2917 133.5,20C 133.728,20.3988 134.062,20.5654 134.5,20.5C 133.791,21.404 132.791,21.7373 131.5,21.5C 131.5,20.5 131.5,19.5 131.5,18.5C 132.568,17.5655 133.901,17.2322 135.5,17.5 Z"/></g>
<g><path style="opacity:1" fill="#a8c4d4" d="M 142.5,17.5 C 143.833,17.5 145.167,17.5 146.5,17.5C 146.285,19.1788 146.952,20.1788 148.5,20.5C 147.082,22.3079 145.082,22.9746 142.5,22.5C 142.5,20.8333 142.5,19.1667 142.5,17.5 Z"/></g>
<g><path style="opacity:1" fill="#a7c3d3" d="M 156.5,16.5 C 156.253,18.8583 156.919,20.8583 158.5,22.5C 157.167,22.1667 155.833,21.8333 154.5,21.5C 154.402,19.4471 155.069,17.7804 156.5,16.5 Z"/></g>
<g><path style="opacity:1" fill="#a5c1d2" d="M 163.5,15.5 C 164.931,16.7804 165.598,18.4471 165.5,20.5C 164.833,20.5 164.167,20.5 163.5,20.5C 163.5,18.8333 163.5,17.1667 163.5,15.5 Z"/></g>
<g><path style="opacity:1" fill="#b7cedb" d="M 169.5,16.5 C 170.833,16.5 172.167,16.5 173.5,16.5C 173.5,18.1667 173.5,19.8333 173.5,21.5C 172.041,21.4326 170.708,21.7659 169.5,22.5C 169.5,20.5 169.5,18.5 169.5,16.5 Z"/></g>
<g><path style="opacity:1" fill="#c7d9e3" d="M 27.5,23.5 C 26.9517,20.9162 25.285,19.9162 22.5,20.5C 25.1513,17.639 27.1513,18.139 28.5,22C 28.4301,22.7648 28.0967,23.2648 27.5,23.5 Z"/></g>
<g><path style="opacity:1" fill="#c2d6e1" d="M 48.5,20.5 C 46.8333,20.5 45.1667,20.5 43.5,20.5C 45.1667,17.8333 46.8333,17.8333 48.5,20.5 Z"/></g>
<g><path style="opacity:1" fill="#7ea7bf" d="M 158.5,16.5 C 159.5,16.5 160.5,16.5 161.5,16.5C 161.5,17.8333 161.5,19.1667 161.5,20.5C 160.5,20.5 159.5,20.5 158.5,20.5C 158.5,19.1667 158.5,17.8333 158.5,16.5 Z"/></g>
<g><path style="opacity:1" fill="#b8cfdb" d="M 21.5,21.5 C 21.5,20.8333 21.8333,20.5 22.5,20.5C 25.285,19.9162 26.9517,20.9162 27.5,23.5C 27.5,24.1667 27.1667,24.5 26.5,24.5C 25.9517,21.9162 24.285,20.9162 21.5,21.5 Z"/></g>
<g><path style="opacity:1" fill="#9bbbcd" d="M 40.5,19.5 C 40.5,20.1667 40.5,20.8333 40.5,21.5C 39.5041,21.4142 38.6708,21.7476 38,22.5C 37.5034,24.8098 37.3367,27.1432 37.5,29.5C 36.1634,30.3149 35.1634,31.4815 34.5,33C 33.6683,33.6877 33.0016,33.521 32.5,32.5C 34.2558,28.7121 34.9225,24.7121 34.5,20.5C 36.4352,19.8505 38.4352,19.5172 40.5,19.5 Z"/></g>
<g><path style="opacity:1" fill="#b4ccda" d="M 43.5,20.5 C 45.1667,20.5 46.8333,20.5 48.5,20.5C 49.1667,20.5 49.5,20.8333 49.5,21.5C 48.209,21.2627 47.209,21.596 46.5,22.5C 45.5,22.8333 44.8333,23.5 44.5,24.5C 42.8624,23.2954 42.5291,21.9621 43.5,20.5 Z"/></g>
<g><path style="opacity:1" fill="#bcd1dd" d="M 136.5,20.5 C 138.483,20.1568 139.817,20.8235 140.5,22.5C 139.167,22.5 137.833,22.5 136.5,22.5C 136.5,21.8333 136.5,21.1667 136.5,20.5 Z"/></g>
<g><path style="opacity:1" fill="#91b4c8" d="M 156.5,16.5 C 156.833,16.5 157.167,16.5 157.5,16.5C 157.833,16.5 158.167,16.5 158.5,16.5C 158.5,17.8333 158.5,19.1667 158.5,20.5C 159.5,20.5 160.5,20.5 161.5,20.5C 161.833,20.5 162.167,20.5 162.5,20.5C 162.167,21.1667 161.833,21.8333 161.5,22.5C 160.5,22.5 159.5,22.5 158.5,22.5C 156.919,20.8583 156.253,18.8583 156.5,16.5 Z"/></g>
<g><path style="opacity:1" fill="#92b5c9" d="M 180.5,20.5 C 180.833,20.5 181.167,20.5 181.5,20.5C 182.5,20.5 183.5,20.5 184.5,20.5C 184.833,20.5 185.167,20.5 185.5,20.5C 185.167,21.1667 184.833,21.8333 184.5,22.5C 183.5,22.5 182.5,22.5 181.5,22.5C 181.167,21.8333 180.833,21.1667 180.5,20.5 Z"/></g>
<g><path style="opacity:1" fill="#a3c0d1" d="M 40.5,21.5 C 39.7949,24.3542 38.7949,27.0209 37.5,29.5C 37.3367,27.1432 37.5034,24.8098 38,22.5C 38.6708,21.7476 39.5041,21.4142 40.5,21.5 Z"/></g>
<g><path style="opacity:1" fill="#aec8d7" d="M 162.5,20.5 C 162.833,20.5 163.167,20.5 163.5,20.5C 164.167,20.5 164.833,20.5 165.5,20.5C 166.338,20.8417 166.672,21.5084 166.5,22.5C 165.167,22.5 163.833,22.5 162.5,22.5C 162.167,22.5 161.833,22.5 161.5,22.5C 161.833,21.8333 162.167,21.1667 162.5,20.5 Z"/></g>
<g><path style="opacity:1" fill="#b0c9d8" d="M 177.5,20.5 C 178.167,20.5 178.833,20.5 179.5,20.5C 179.833,20.5 180.167,20.5 180.5,20.5C 180.833,21.1667 181.167,21.8333 181.5,22.5C 181.167,22.5 180.833,22.5 180.5,22.5C 179.167,22.5 177.833,22.5 176.5,22.5C 176.328,21.5084 176.662,20.8417 177.5,20.5 Z"/></g>
<g><path style="opacity:1" fill="#a7c3d3" d="M 186.5,15.5 C 187.404,16.209 187.737,17.209 187.5,18.5C 187.771,20.3797 187.104,21.713 185.5,22.5C 185.167,22.5 184.833,22.5 184.5,22.5C 184.833,21.8333 185.167,21.1667 185.5,20.5C 186.451,19.0813 186.784,17.4147 186.5,15.5 Z"/></g>
<g><path style="opacity:1" fill="#b9cfdc" d="M 187.5,18.5 C 188.338,18.8417 188.672,19.5084 188.5,20.5C 188.5,22.5 187.5,23.5 185.5,23.5C 185.5,23.1667 185.5,22.8333 185.5,22.5C 187.104,21.713 187.771,20.3797 187.5,18.5 Z"/></g>
<g><path style="opacity:1" fill="#9ebdcf" d="M 46.5,22.5 C 47.791,22.2627 48.791,22.596 49.5,23.5C 48.5,23.5 47.5,23.5 46.5,23.5C 46.5,24.5 46.5,25.5 46.5,26.5C 45.5,26.1667 44.8333,25.5 44.5,24.5C 44.8333,23.5 45.5,22.8333 46.5,22.5 Z"/></g>
<g><path style="opacity:1" fill="#b2cbd9" d="M 129.5,19.5 C 129.328,20.4916 129.662,21.1583 130.5,21.5C 132.099,23.7288 134.099,24.0622 136.5,22.5C 136.5,23.1667 136.5,23.8333 136.5,24.5C 134.5,24.5 132.5,24.5 130.5,24.5C 129.833,23.5 129.167,22.5 128.5,21.5C 128.328,20.5084 128.662,19.8417 129.5,19.5 Z"/></g>
<g><path style="opacity:1" fill="#c3d6e1" d="M 136.5,22.5 C 137.833,22.5 139.167,22.5 140.5,22.5C 139.817,24.1765 138.483,24.8432 136.5,24.5C 136.5,23.8333 136.5,23.1667 136.5,22.5 Z"/></g>
<g><path style="opacity:1" fill="#b3cbd9" d="M 148.5,20.5 C 148.833,20.5 149.167,20.5 149.5,20.5C 149.5,21.5 149.5,22.5 149.5,23.5C 147.167,23.5 144.833,23.5 142.5,23.5C 142.5,23.1667 142.5,22.8333 142.5,22.5C 145.082,22.9746 147.082,22.3079 148.5,20.5 Z"/></g>
<g><path style="opacity:1" fill="#b8cedb" d="M 154.5,21.5 C 155.833,21.8333 157.167,22.1667 158.5,22.5C 157.365,24.2132 155.698,24.8799 153.5,24.5C 153.263,23.209 153.596,22.209 154.5,21.5 Z"/></g>
<g><path style="opacity:1" fill="#cadbe5" d="M 173.5,21.5 C 173.5,22.5 173.5,23.5 173.5,24.5C 171.517,24.8432 170.183,24.1765 169.5,22.5C 170.708,21.7659 172.041,21.4326 173.5,21.5 Z"/></g>
<g><path style="opacity:1" fill="#cbdbe5" d="M 188.5,20.5 C 191.3,24.3981 190.3,25.3981 185.5,23.5C 187.5,23.5 188.5,22.5 188.5,20.5 Z"/></g>
<g><path style="opacity:1" fill="#c6d8e2" d="M 128.5,21.5 C 129.167,22.5 129.833,23.5 130.5,24.5C 129.022,24.762 127.689,24.4287 126.5,23.5C 126.855,22.4777 127.522,21.811 128.5,21.5 Z"/></g>
<g><path style="opacity:1" fill="#bed3de" d="M 149.5,20.5 C 150.5,20.5 151.5,20.5 152.5,20.5C 152.5,21.8333 152.5,23.1667 152.5,24.5C 148.958,24.8128 145.625,24.4794 142.5,23.5C 144.833,23.5 147.167,23.5 149.5,23.5C 149.5,22.5 149.5,21.5 149.5,20.5 Z"/></g>
<g><path style="opacity:1" fill="#c1d5e0" d="M 162.5,22.5 C 163.833,22.5 165.167,22.5 166.5,22.5C 167.043,22.56 167.376,22.8933 167.5,23.5C 166.667,23.8333 165.833,24.1667 165,24.5C 163.624,24.3158 162.791,23.6491 162.5,22.5 Z"/></g>
<g><path style="opacity:1" fill="#c3d6e1" d="M 176.5,22.5 C 177.833,22.5 179.167,22.5 180.5,22.5C 180.209,23.6491 179.376,24.3158 178,24.5C 175.641,24.676 175.141,24.0093 176.5,22.5 Z"/></g>
<g><path style="opacity:1" fill="#8aafc5" d="M 24.5,26.5 C 24.8333,27.1667 25.1667,27.8333 25.5,28.5C 25.5,29.1667 25.1667,29.5 24.5,29.5C 23.5,29.5 22.5,29.5 21.5,29.5C 19.8894,27.1666 20.3894,25.4999 23,24.5C 24.0299,24.8361 24.5299,25.5028 24.5,26.5 Z"/></g>
<g><path style="opacity:1" fill="#98b9cc" d="M 25.5,25.5 C 25.5,26.1667 25.1667,26.5 24.5,26.5C 24.5299,25.5028 24.0299,24.8361 23,24.5C 20.3894,25.4999 19.8894,27.1666 21.5,29.5C 20.8333,29.5 20.1667,29.5 19.5,29.5C 18.5272,24.9943 20.1939,22.8276 24.5,23C 25.2524,23.6708 25.5858,24.5041 25.5,25.5 Z"/></g>
<g><path style="opacity:1" fill="#b0c9d7" d="M 21.5,21.5 C 24.285,20.9162 25.9517,21.9162 26.5,24.5C 26.5,25.1667 26.1667,25.5 25.5,25.5C 25.5858,24.5041 25.2524,23.6708 24.5,23C 20.1939,22.8276 18.5272,24.9943 19.5,29.5C 16.6542,26.2078 17.3209,23.5411 21.5,21.5 Z"/></g>
<g><path style="opacity:1" fill="#8db1c6" d="M 49.5,23.5 C 50.1667,23.5 50.5,23.8333 50.5,24.5C 50.7678,26.099 50.4345,27.4324 49.5,28.5C 48.8333,23.1667 48.1667,23.1667 47.5,28.5C 46.8333,28.5 46.5,28.1667 46.5,27.5C 46.5,27.1667 46.5,26.8333 46.5,26.5C 46.5,25.5 46.5,24.5 46.5,23.5C 47.5,23.5 48.5,23.5 49.5,23.5 Z"/></g>
<g><path style="opacity:1" fill="#adc7d6" d="M 46.5,22.5 C 47.209,21.596 48.209,21.2627 49.5,21.5C 54.8333,25.1667 54.8333,28.8333 49.5,32.5C 47.7085,32.634 46.0418,32.3007 44.5,31.5C 44.5,30.8333 44.5,30.1667 44.5,29.5C 44.5,28.8333 44.8333,28.5 45.5,28.5C 46.6591,30.3769 48.3258,30.8769 50.5,30C 51.807,28.0565 51.807,26.2232 50.5,24.5C 50.5,23.8333 50.1667,23.5 49.5,23.5C 48.791,22.596 47.791,22.2627 46.5,22.5 Z"/></g>
<g><path style="opacity:1" fill="#84abc2" d="M 49.5,28.5 C 48.8333,28.5 48.1667,28.5 47.5,28.5C 48.1667,23.1667 48.8333,23.1667 49.5,28.5 Z"/></g>
<g><path style="opacity:1" fill="#a2c0d1" d="M 34.5,20.5 C 34.9225,24.7121 34.2558,28.7121 32.5,32.5C 33.0016,33.521 33.6683,33.6877 34.5,33C 35.1634,31.4815 36.1634,30.3149 37.5,29.5C 37.4828,31.5648 37.1495,33.5648 36.5,35.5C 34.5,35.5 32.5,35.5 30.5,35.5C 31.3887,30.2715 32.722,25.2715 34.5,20.5 Z"/></g>
<g><path style="opacity:1" fill="#94b6ca" d="M 50.5,24.5 C 51.807,26.2232 51.807,28.0565 50.5,30C 48.3258,30.8769 46.6591,30.3769 45.5,28.5C 45.5,27.8333 45.8333,27.5 46.5,27.5C 46.5,28.1667 46.8333,28.5 47.5,28.5C 48.1667,28.5 48.8333,28.5 49.5,28.5C 50.4345,27.4324 50.7678,26.099 50.5,24.5 Z"/></g>
<g><path style="opacity:1" fill="#b4ccda" d="M 26.5,29.5 C 28.5195,30.5383 28.8528,31.8716 27.5,33.5C 27.1583,32.6618 26.4916,32.3284 25.5,32.5C 25.5569,31.391 25.8902,30.391 26.5,29.5 Z"/></g>
<g><path style="opacity:1" fill="#acc7d6" d="M 25.5,28.5 C 26.1667,28.5 26.5,28.8333 26.5,29.5C 25.8902,30.391 25.5569,31.391 25.5,32.5C 24.5,32.5 23.5,32.5 22.5,32.5C 21.1667,31.8333 20.1667,30.8333 19.5,29.5C 20.1667,29.5 20.8333,29.5 21.5,29.5C 22.7399,31.9845 23.7399,31.9845 24.5,29.5C 25.1667,29.5 25.5,29.1667 25.5,28.5 Z"/></g>
<g><path style="opacity:1" fill="#9fbdcf" d="M 21.5,29.5 C 22.5,29.5 23.5,29.5 24.5,29.5C 23.7399,31.9845 22.7399,31.9845 21.5,29.5 Z"/></g>
<g><path style="opacity:1" fill="#bfd3df" d="M 22.5,32.5 C 23.5,32.5 24.5,32.5 25.5,32.5C 26.4916,32.3284 27.1583,32.6618 27.5,33.5C 25.5453,34.9302 23.8786,34.5969 22.5,32.5 Z"/></g>
<g><path style="opacity:1" fill="#bbd1dd" d="M 44.5,31.5 C 46.0418,32.3007 47.7085,32.634 49.5,32.5C 49.5,33.1667 49.1667,33.5 48.5,33.5C 46.5168,33.8432 45.1834,33.1765 44.5,31.5 Z"/></g>
<g><path style="opacity:1" fill="#c7d9e3" d="M 44.5,29.5 C 44.5,30.1667 44.5,30.8333 44.5,31.5C 45.1834,33.1765 46.5168,33.8432 48.5,33.5C 46.1618,34.947 44.1618,34.447 42.5,32C 43.0659,31.0053 43.7326,30.172 44.5,29.5 Z"/></g>
<g><path style="opacity:1" fill="#b7cedb" d="M 30.5,35.5 C 32.5,35.5 34.5,35.5 36.5,35.5C 36.6716,36.4916 36.3382,37.1583 35.5,37.5C 33.8333,37.5 32.1667,37.5 30.5,37.5C 30.5,36.8333 30.5,36.1667 30.5,35.5 Z"/></g>
<g><path style="opacity:1" fill="#cbdce5" d="M 30.5,37.5 C 32.1667,37.5 33.8333,37.5 35.5,37.5C 33.9622,40.0479 32.2956,40.0479 30.5,37.5 Z"/></g>
<g><path style="opacity:1" fill="#d9e5ec" d="M 130.5,40.5 C 129.209,40.2627 128.209,40.596 127.5,41.5C 126.249,40.528 126.582,39.8614 128.5,39.5C 129.416,39.5427 130.083,39.8761 130.5,40.5 Z"/></g>
<g><path style="opacity:1" fill="#bbd1dd" d="M 157.5,43.5 C 156.167,43.1667 154.833,42.8333 153.5,42.5C 152.866,41.0532 151.699,40.3866 150,40.5C 147.793,41.0297 145.793,42.0297 144,43.5C 143.601,43.2716 143.435,42.9382 143.5,42.5C 147.01,39.1666 151.01,38.6666 155.5,41C 156.381,41.7083 157.047,42.5416 157.5,43.5 Z"/></g>
<g><path style="opacity:1" fill="#b8cfdc" d="M 163.5,39.5 C 165.857,39.3367 168.19,39.5034 170.5,40C 171.756,40.4169 172.423,41.2502 172.5,42.5C 171.833,42.5 171.167,42.5 170.5,42.5C 169.833,42.1667 169.167,41.8333 168.5,41.5C 166.95,40.2801 165.284,40.2801 163.5,41.5C 163.5,40.8333 163.5,40.1667 163.5,39.5 Z"/></g>
<g><path style="opacity:1" fill="#bcd1dd" d="M 191.5,43.5 C 190.167,43.1667 188.833,42.8333 187.5,42.5C 186.866,41.0532 185.699,40.3866 184,40.5C 181.774,41.0329 179.607,41.6996 177.5,42.5C 181.01,39.1666 185.01,38.6666 189.5,41C 190.381,41.7083 191.047,42.5416 191.5,43.5 Z"/></g>
<g><path style="opacity:1" fill="#c7d9e3" d="M 221.5,39.5 C 222.833,39.5 224.167,39.5 225.5,39.5C 225.5,40.5 225.5,41.5 225.5,42.5C 223.027,42.9118 221.694,41.9118 221.5,39.5 Z"/></g>
<g><path style="opacity:1" fill="#cddde6" d="M 140.5,41.5 C 138.833,41.5 137.167,41.5 135.5,41.5C 137.296,38.9521 138.962,38.9521 140.5,41.5 Z"/></g>
<g><path style="opacity:1" fill="#c4d7e2" d="M 163.5,39.5 C 163.5,40.1667 163.5,40.8333 163.5,41.5C 162.833,41.5 162.167,41.5 161.5,41.5C 161.5,40.1667 162.167,39.5 163.5,39.5 Z"/></g>
<g><path style="opacity:1" fill="#a9c4d4" d="M 168.5,41.5 C 167.209,41.2627 166.209,41.596 165.5,42.5C 164.833,42.8333 164.167,43.1667 163.5,43.5C 162.833,43.5 162.167,43.5 161.5,43.5C 161.5,42.8333 161.5,42.1667 161.5,41.5C 162.167,41.5 162.833,41.5 163.5,41.5C 165.284,40.2801 166.95,40.2801 168.5,41.5 Z"/></g>
<g><path style="opacity:1" fill="#b2cbd9" d="M 187.5,42.5 C 186.305,42.3225 185.138,41.9891 184,41.5C 181.563,42.8001 179.063,43.8001 176.5,44.5C 176.328,43.5084 176.662,42.8417 177.5,42.5C 179.607,41.6996 181.774,41.0329 184,40.5C 185.699,40.3866 186.866,41.0532 187.5,42.5 Z"/></g>
<g><path style="opacity:1" fill="#c3d6e1" d="M 200.5,41.5 C 198.833,41.5 197.167,41.5 195.5,41.5C 197.038,38.9521 198.704,38.9521 200.5,41.5 Z"/></g>
<g><path style="opacity:1" fill="#cfdee7" d="M 210.5,41.5 C 208.833,41.5 207.167,41.5 205.5,41.5C 207.296,38.9521 208.962,38.9521 210.5,41.5 Z"/></g>
<g><path style="opacity:1" fill="#bed2df" d="M 218.5,39.5 C 217.833,40.1667 217.167,40.8333 216.5,41.5C 215.5,41.5 214.5,41.5 213.5,41.5C 214.552,39.744 216.219,39.0773 218.5,39.5 Z"/></g>
<g><path style="opacity:1" fill="#b3cbd9" d="M 218.5,39.5 C 219.5,39.5 220.5,39.5 221.5,39.5C 221.694,41.9118 223.027,42.9118 225.5,42.5C 224.081,43.4511 222.415,43.7845 220.5,43.5C 220.5,43.1667 220.5,42.8333 220.5,42.5C 219.432,41.5655 218.099,41.2322 216.5,41.5C 217.167,40.8333 217.833,40.1667 218.5,39.5 Z"/></g>
<g><path style="opacity:1" fill="#bdd2de" d="M 233.5,42.5 C 231.833,42.5 230.167,42.5 228.5,42.5C 228.5,41.5 228.5,40.5 228.5,39.5C 231.285,38.9162 232.952,39.9162 233.5,42.5 Z"/></g>
<g><path style="opacity:1" fill="#d1dfe8" d="M 242.5,40.5 C 241.432,41.4345 240.099,41.7678 238.5,41.5C 238.62,40.4138 239.287,39.7472 240.5,39.5C 241.416,39.5427 242.083,39.8761 242.5,40.5 Z"/></g>
<g><path style="opacity:1" fill="#cbdce5" d="M 250.5,41.5 C 249.167,41.5 247.833,41.5 246.5,41.5C 246.62,40.4138 247.287,39.7472 248.5,39.5C 249.713,39.7472 250.38,40.4138 250.5,41.5 Z"/></g>
<g><path style="opacity:1" fill="#c8dae4" d="M 259.5,41.5 C 257.833,41.5 256.167,41.5 254.5,41.5C 256.011,39.5589 258.011,39.0589 260.5,40C 259.944,40.3826 259.611,40.8826 259.5,41.5 Z"/></g>
<g><path style="opacity:1" fill="#c8d9e4" d="M 130.5,40.5 C 131.338,40.8417 131.672,41.5084 131.5,42.5C 130.29,42.9321 129.29,43.5987 128.5,44.5C 127.596,43.791 127.263,42.791 127.5,41.5C 128.209,40.596 129.209,40.2627 130.5,40.5 Z"/></g>
<g><path style="opacity:1" fill="#acc6d6" d="M 153.5,42.5 C 155.113,43.8381 155.613,45.5048 155,47.5C 154.617,46.944 154.117,46.6107 153.5,46.5C 151.167,42.5 148.833,42.5 146.5,46.5C 145.18,47.9418 143.514,48.6085 141.5,48.5C 141.259,46.1016 141.926,44.1016 143.5,42.5C 143.435,42.9382 143.601,43.2716 144,43.5C 145.793,42.0297 147.793,41.0297 150,40.5C 151.699,40.3866 152.866,41.0532 153.5,42.5 Z"/></g>
<g><path style="opacity:1" fill="#9fbed0" d="M 216.5,41.5 C 218.099,41.2322 219.432,41.5655 220.5,42.5C 219.041,42.4326 217.708,42.7659 216.5,43.5C 216.5,42.8333 216.5,42.1667 216.5,41.5 Z"/></g>
<g><path style="opacity:1" fill="#bfd3df" d="M 242.5,40.5 C 243.404,41.209 243.737,42.209 243.5,43.5C 241.833,43.5 240.167,43.5 238.5,43.5C 238.5,42.8333 238.5,42.1667 238.5,41.5C 240.099,41.7678 241.432,41.4345 242.5,40.5 Z"/></g>
<g><path style="opacity:1" fill="#b8cfdc" d="M 246.5,41.5 C 247.833,41.5 249.167,41.5 250.5,41.5C 250.5,41.8333 250.5,42.1667 250.5,42.5C 249.292,43.2341 247.959,43.5674 246.5,43.5C 246.5,42.8333 246.5,42.1667 246.5,41.5 Z"/></g>
<g><path style="opacity:1" fill="#bbd1dd" d="M 253.5,42.5 C 253.5,41.8333 253.833,41.5 254.5,41.5C 256.167,41.5 257.833,41.5 259.5,41.5C 259.167,42.5 258.5,43.1667 257.5,43.5C 256.167,43.1667 254.833,42.8333 253.5,42.5 Z"/></g>
<g><path style="opacity:1" fill="#acc7d6" d="M 266.5,41.5 C 268.565,41.5172 270.565,41.8505 272.5,42.5C 274.178,45.5516 274.845,48.8849 274.5,52.5C 272.512,52.8271 270.512,53.1604 268.5,53.5C 265.822,52.8246 263.156,52.158 260.5,51.5C 260.336,48.8127 260.503,46.146 261,43.5C 261.383,42.944 261.883,42.6107 262.5,42.5C 263.833,42.1667 265.167,41.8333 266.5,41.5 Z M 267.5,43.5 C 271.475,44.0971 272.975,46.4305 272,50.5C 268.229,53.5977 265.729,52.7644 264.5,48C 265.386,46.3853 266.386,44.8853 267.5,43.5 Z"/></g>
<g><path style="opacity:1" fill="#bad0dd" d="M 135.5,41.5 C 137.167,41.5 138.833,41.5 140.5,41.5C 140.167,42.1667 139.833,42.8333 139.5,43.5C 138.167,43.5 136.833,43.5 135.5,43.5C 135.5,42.8333 135.5,42.1667 135.5,41.5 Z"/></g>
<g><path style="opacity:1" fill="#a8c4d4" d="M 195.5,41.5 C 197.167,41.5 198.833,41.5 200.5,41.5C 201.338,41.8417 201.672,42.5084 201.5,43.5C 199.435,43.5172 197.435,43.8505 195.5,44.5C 195.5,43.5 195.5,42.5 195.5,41.5 Z"/></g>
<g><path style="opacity:1" fill="#b8cfdc" d="M 205.5,41.5 C 207.167,41.5 208.833,41.5 210.5,41.5C 210.5,42.5 210.5,43.5 210.5,44.5C 209.5,44.5 208.5,44.5 207.5,44.5C 206.833,44.5 206.167,44.5 205.5,44.5C 205.5,43.5 205.5,42.5 205.5,41.5 Z"/></g>
<g><path style="opacity:1" fill="#aac5d5" d="M 213.5,41.5 C 214.5,41.5 215.5,41.5 216.5,41.5C 216.5,42.1667 216.5,42.8333 216.5,43.5C 215.5,43.5 214.5,43.5 213.5,43.5C 213.5,42.8333 213.5,42.1667 213.5,41.5 Z"/></g>
<g><path style="opacity:1" fill="#a8c4d4" d="M 170.5,42.5 C 171.167,42.5 171.833,42.5 172.5,42.5C 173.338,42.8417 173.672,43.5084 173.5,44.5C 171.821,44.7148 170.821,44.0481 170.5,42.5 Z"/></g>
<g><path style="opacity:1" fill="#9fbecf" d="M 228.5,42.5 C 230.167,42.5 231.833,42.5 233.5,42.5C 234.5,42.8333 235.167,43.5 235.5,44.5C 233.5,44.5 231.5,44.5 229.5,44.5C 229.5,45.5 229.5,46.5 229.5,47.5C 229.167,47.5 228.833,47.5 228.5,47.5C 228.5,45.8333 228.5,44.1667 228.5,42.5 Z"/></g>
<g><path style="opacity:1" fill="#adc7d6" d="M 238.5,44.5 C 238.5,44.1667 238.5,43.8333 238.5,43.5C 240.167,43.5 241.833,43.5 243.5,43.5C 243.5,43.8333 243.5,44.1667 243.5,44.5C 241.901,45.562 240.234,45.562 238.5,44.5 Z"/></g>
<g><path style="opacity:1" fill="#adc7d6" d="M 252.5,43.5 C 252.5,42.8333 252.833,42.5 253.5,42.5C 254.833,42.8333 256.167,43.1667 257.5,43.5C 256.488,44.8717 255.488,46.205 254.5,47.5C 254.771,45.6203 254.104,44.287 252.5,43.5 Z"/></g>
<g><path style="opacity:1" fill="#bdd2de" d="M 276.5,45.5 C 275.167,44.5 273.833,43.5 272.5,42.5C 271.866,41.0532 270.699,40.3866 269,40.5C 267.93,40.528 267.097,40.8614 266.5,41.5C 265.167,41.8333 263.833,42.1667 262.5,42.5C 265.204,39.6967 268.537,38.8634 272.5,40C 274.819,41.1474 276.152,42.9807 276.5,45.5 Z"/></g>
<g><path style="opacity:1" fill="#b2cad9" d="M 266.5,41.5 C 267.097,40.8614 267.93,40.528 269,40.5C 270.699,40.3866 271.866,41.0532 272.5,42.5C 270.565,41.8505 268.565,41.5172 266.5,41.5 Z"/></g>
<g><path style="opacity:1" fill="#8cb0c6" d="M 165.5,42.5 C 166.791,42.2627 167.791,42.596 168.5,43.5C 167.833,43.5 167.167,43.5 166.5,43.5C 165.532,45.6074 165.198,47.9407 165.5,50.5C 165.5,50.8333 165.5,51.1667 165.5,51.5C 164.232,49.0948 163.565,46.4282 163.5,43.5C 164.167,43.1667 164.833,42.8333 165.5,42.5 Z"/></g>
<g><path style="opacity:1" fill="#9abacd" d="M 165.5,42.5 C 166.209,41.596 167.209,41.2627 168.5,41.5C 169.167,41.8333 169.833,42.1667 170.5,42.5C 170.821,44.0481 171.821,44.7148 173.5,44.5C 172.833,46.8333 172.167,49.1667 171.5,51.5C 170.833,51.8333 170.167,52.1667 169.5,52.5C 169.81,49.2869 169.477,46.2869 168.5,43.5C 167.791,42.596 166.791,42.2627 165.5,42.5 Z"/></g>
<g><path style="opacity:1" fill="#abc6d5" d="M 187.5,42.5 C 189.113,43.8381 189.613,45.5048 189,47.5C 188.617,46.944 188.117,46.6107 187.5,46.5C 184.279,42.2909 181.946,42.7909 180.5,48C 180.601,50.6009 181.935,52.1009 184.5,52.5C 186.175,52.1316 187.175,51.1316 187.5,49.5C 188.376,49.3691 189.043,49.7025 189.5,50.5C 188.873,51.4168 188.539,52.4168 188.5,53.5C 184.33,53.6669 180.33,53.0003 176.5,51.5C 175.833,51.5 175.5,51.1667 175.5,50.5C 178.048,48.7044 178.048,47.0378 175.5,45.5C 175.5,44.8333 175.833,44.5 176.5,44.5C 179.063,43.8001 181.563,42.8001 184,41.5C 185.138,41.9891 186.305,42.3225 187.5,42.5 Z"/></g>
<g><path style="opacity:1" fill="#8cb1c6" d="M 202.5,44.5 C 203.167,44.5 203.5,44.8333 203.5,45.5C 202.167,45.5 200.833,45.5 199.5,45.5C 199.5,46.5 199.5,47.5 199.5,48.5C 198.566,47.4324 198.232,46.099 198.5,44.5C 199.833,44.5 201.167,44.5 202.5,44.5 Z"/></g>
<g><path style="opacity:1" fill="#99b9cc" d="M 213.5,43.5 C 214.5,43.5 215.5,43.5 216.5,43.5C 216.5,46.5 216.5,49.5 216.5,52.5C 215.5,52.5 214.5,52.5 213.5,52.5C 213.5,49.5 213.5,46.5 213.5,43.5 Z"/></g>
<g><path style="opacity:1" fill="#a0bed0" d="M 250.5,42.5 C 250.5,43.1667 250.5,43.8333 250.5,44.5C 249.508,44.3284 248.842,44.6618 248.5,45.5C 247.833,45.5 247.167,45.5 246.5,45.5C 246.5,44.8333 246.5,44.1667 246.5,43.5C 247.959,43.5674 249.292,43.2341 250.5,42.5 Z"/></g>
<g><path style="opacity:1" fill="#b1cad8" d="M 272.5,42.5 C 273.833,43.5 275.167,44.5 276.5,45.5C 276.829,48.2282 276.163,50.5615 274.5,52.5C 274.845,48.8849 274.178,45.5516 272.5,42.5 Z"/></g>
<g><path style="opacity:1" fill="#b0c9d8" d="M 131.5,42.5 C 132.167,42.5 132.5,42.8333 132.5,43.5C 130.72,44.9899 130.054,46.9899 130.5,49.5C 129.069,48.2196 128.402,46.5529 128.5,44.5C 129.29,43.5987 130.29,42.9321 131.5,42.5 Z"/></g>
<g><path style="opacity:1" fill="#9ebdcf" d="M 132.5,43.5 C 132.5,44.1667 132.5,44.8333 132.5,45.5C 131.566,46.5676 131.232,47.901 131.5,49.5C 131.167,49.5 130.833,49.5 130.5,49.5C 130.054,46.9899 130.72,44.9899 132.5,43.5 Z"/></g>
<g><path style="opacity:1" fill="#8db2c6" d="M 132.5,45.5 C 133.167,45.5 133.833,45.5 134.5,45.5C 136.035,48.3298 135.035,49.6631 131.5,49.5C 131.232,47.901 131.566,46.5676 132.5,45.5 Z"/></g>
<g><path style="opacity:1" fill="#9cbbce" d="M 135.5,43.5 C 137.233,46.8488 136.567,49.5155 133.5,51.5C 132.287,51.2528 131.62,50.5862 131.5,49.5C 135.035,49.6631 136.035,48.3298 134.5,45.5C 134.328,44.5084 134.662,43.8417 135.5,43.5 Z"/></g>
<g><path style="opacity:1" fill="#aac5d5" d="M 135.5,43.5 C 136.833,43.5 138.167,43.5 139.5,43.5C 138.538,46.7391 137.205,49.7391 135.5,52.5C 134.167,52.5 132.833,52.5 131.5,52.5C 130.596,51.791 130.263,50.791 130.5,49.5C 130.833,49.5 131.167,49.5 131.5,49.5C 131.62,50.5862 132.287,51.2528 133.5,51.5C 136.567,49.5155 137.233,46.8488 135.5,43.5 Z"/></g>
<g><path style="opacity:1" fill="#a4c1d2" d="M 175.5,45.5 C 178.048,47.0378 178.048,48.7044 175.5,50.5C 175.5,48.8333 175.5,47.1667 175.5,45.5 Z"/></g>
<g><path style="opacity:1" fill="#a1bfd0" d="M 207.5,44.5 C 208.5,44.5 209.5,44.5 210.5,44.5C 210.5,45.5 210.5,46.5 210.5,47.5C 208.563,48.1951 207.563,47.1951 207.5,44.5 Z"/></g>
<g><path style="opacity:1" fill="#a0bed0" d="M 238.5,45.5 C 238.5,45.1667 238.5,44.8333 238.5,44.5C 240.234,45.562 241.901,45.562 243.5,44.5C 243.5,45.5 243.5,46.5 243.5,47.5C 242.5,48.8333 241.5,48.8333 240.5,47.5C 240.167,46.5 239.5,45.8333 238.5,45.5 Z"/></g>
<g><path style="opacity:1" fill="#98b9cc" d="M 246.5,45.5 C 247.167,45.5 247.833,45.5 248.5,45.5C 248.205,47.7354 248.539,49.7354 249.5,51.5C 249.833,51.5 250.167,51.5 250.5,51.5C 250.5,52.1667 250.5,52.8333 250.5,53.5C 249.292,52.7659 247.959,52.4326 246.5,52.5C 246.5,50.1667 246.5,47.8333 246.5,45.5 Z"/></g>
<g><path style="opacity:1" fill="#90b3c8" d="M 7.5,44.5 C 7.5,44.8333 7.5,45.1667 7.5,45.5C 6.62356,45.3691 5.95689,45.7025 5.5,46.5C 6.12723,47.4168 6.46056,48.4168 6.5,49.5C 5.50838,49.6716 4.84171,49.3382 4.5,48.5C 4.5,47.1667 4.5,45.8333 4.5,44.5C 5.5,44.5 6.5,44.5 7.5,44.5 Z"/></g>
<g><path style="opacity:1" fill="#83aac1" d="M 203.5,45.5 C 203.833,46.5 204.5,47.1667 205.5,47.5C 204.817,49.1765 203.483,49.8432 201.5,49.5C 200.833,49.1667 200.167,48.8333 199.5,48.5C 199.5,47.5 199.5,46.5 199.5,45.5C 200.833,45.5 202.167,45.5 203.5,45.5 Z"/></g>
<g><path style="opacity:1" fill="#8cb1c6" d="M 220.5,42.5 C 220.5,42.8333 220.5,43.1667 220.5,43.5C 217.833,44.5 217.833,45.5 220.5,46.5C 220.5,47.8333 220.5,49.1667 220.5,50.5C 217.833,51.1667 217.833,51.8333 220.5,52.5C 219.432,53.4345 218.099,53.7678 216.5,53.5C 216.5,53.1667 216.5,52.8333 216.5,52.5C 216.5,49.5 216.5,46.5 216.5,43.5C 217.708,42.7659 219.041,42.4326 220.5,42.5 Z"/></g>
<g><path style="opacity:1" fill="#92b5c9" d="M 235.5,44.5 C 235.5,44.8333 235.5,45.1667 235.5,45.5C 234.167,45.5 232.833,45.5 231.5,45.5C 231.5,46.8333 231.5,48.1667 231.5,49.5C 230.833,48.8333 230.167,48.1667 229.5,47.5C 229.5,46.5 229.5,45.5 229.5,44.5C 231.5,44.5 233.5,44.5 235.5,44.5 Z"/></g>
<g><path style="opacity:1" fill="#84abc2" d="M 235.5,45.5 C 236.79,46.0577 237.623,47.0577 238,48.5C 238.399,48.2716 238.565,47.9382 238.5,47.5C 239.404,48.209 239.737,49.209 239.5,50.5C 237.833,50.5 236.167,50.5 234.5,50.5C 233.994,48.8946 233.327,48.5613 232.5,49.5C 232.167,49.5 231.833,49.5 231.5,49.5C 231.5,48.1667 231.5,46.8333 231.5,45.5C 232.833,45.5 234.167,45.5 235.5,45.5 Z"/></g>
<g><path style="opacity:1" fill="#98b9cc" d="M 252.5,43.5 C 254.104,44.287 254.771,45.6203 254.5,47.5C 254.5,48.1667 254.5,48.8333 254.5,49.5C 254.768,51.099 254.434,52.4324 253.5,53.5C 252.833,53.5 252.5,53.1667 252.5,52.5C 253.767,49.9387 253.767,47.272 252.5,44.5C 252.5,44.1667 252.5,43.8333 252.5,43.5 Z"/></g>
<g><path style="opacity:1" fill="#87adc3" d="M 7.5,45.5 C 7.84171,46.3382 8.50838,46.6716 9.5,46.5C 9.5,47.5 9.5,48.5 9.5,49.5C 8.5,49.5 7.5,49.5 6.5,49.5C 6.46056,48.4168 6.12723,47.4168 5.5,46.5C 5.95689,45.7025 6.62356,45.3691 7.5,45.5 Z"/></g>
<g><path style="opacity:1" fill="#94b6ca" d="M 9.5,46.5 C 10.1667,46.5 10.8333,46.5 11.5,46.5C 11.5,46.8333 11.5,47.1667 11.5,47.5C 11.5,48.5 11.5,49.5 11.5,50.5C 9.83333,50.5 8.16667,50.5 6.5,50.5C 6.5,50.1667 6.5,49.8333 6.5,49.5C 7.5,49.5 8.5,49.5 9.5,49.5C 9.5,48.5 9.5,47.5 9.5,46.5 Z"/></g>
<g><path style="opacity:1" fill="#a6c2d3" d="M 11.5,47.5 C 11.5,47.1667 11.5,46.8333 11.5,46.5C 27.5,46.5 43.5,46.5 59.5,46.5C 59.5,46.8333 59.5,47.1667 59.5,47.5C 43.4208,47.8707 27.4208,47.8707 11.5,47.5 Z"/></g>
<g><path style="opacity:1" fill="#76a2bb" d="M 166.5,43.5 C 166.285,45.1788 166.952,46.1788 168.5,46.5C 167.962,48.1172 167.629,49.7839 167.5,51.5C 166.833,51.1667 166.167,50.8333 165.5,50.5C 165.198,47.9407 165.532,45.6074 166.5,43.5 Z"/></g>
<g><path style="opacity:1" fill="#b1cad8" d="M 187.5,42.5 C 188.833,42.8333 190.167,43.1667 191.5,43.5C 191.5,43.8333 191.5,44.1667 191.5,44.5C 190.167,46.8333 190.167,49.1667 191.5,51.5C 191.5,51.8333 191.5,52.1667 191.5,52.5C 190.391,52.5569 189.391,52.8902 188.5,53.5C 188.539,52.4168 188.873,51.4168 189.5,50.5C 189.043,49.7025 188.376,49.3691 187.5,49.5C 187.5,48.5 187.5,47.5 187.5,46.5C 188.117,46.6107 188.617,46.944 189,47.5C 189.613,45.5048 189.113,43.8381 187.5,42.5 Z"/></g>
<g><path style="opacity:1" fill="#8aafc5" d="M 205.5,45.5 C 207.074,47.1016 207.741,49.1016 207.5,51.5C 206.432,52.4345 205.099,52.7678 203.5,52.5C 202.599,51.7095 201.932,50.7095 201.5,49.5C 203.483,49.8432 204.817,49.1765 205.5,47.5C 205.5,46.8333 205.5,46.1667 205.5,45.5 Z"/></g>
<g><path style="opacity:1" fill="#96b8cb" d="M 205.5,45.5 C 205.5,45.1667 205.5,44.8333 205.5,44.5C 206.167,44.5 206.833,44.5 207.5,44.5C 207.563,47.1951 208.563,48.1951 210.5,47.5C 210.5,48.8333 210.5,50.1667 210.5,51.5C 209.5,51.5 208.5,51.5 207.5,51.5C 207.741,49.1016 207.074,47.1016 205.5,45.5 Z"/></g>
<g><path style="opacity:1" fill="#a5c2d2" d="M 220.5,46.5 C 220.833,46.5 221.167,46.5 221.5,46.5C 221.433,47.9587 221.766,49.2921 222.5,50.5C 221.833,50.5 221.167,50.5 220.5,50.5C 220.5,49.1667 220.5,47.8333 220.5,46.5 Z"/></g>
<g><path style="opacity:1" fill="#c0d4df" d="M 221.5,46.5 C 222.5,46.5 223.5,46.5 224.5,46.5C 224.843,48.4832 224.176,49.8166 222.5,50.5C 221.766,49.2921 221.433,47.9587 221.5,46.5 Z"/></g>
<g><path style="opacity:1" fill="#99b9cc" d="M 240.5,47.5 C 241.5,48.8333 242.5,48.8333 243.5,47.5C 243.5,49.5 243.5,51.5 243.5,53.5C 241.5,53.5 239.5,53.5 237.5,53.5C 236.5,53.1667 235.833,52.5 235.5,51.5C 237.167,51.5 238.833,51.5 240.5,51.5C 240.5,50.1667 240.5,48.8333 240.5,47.5 Z"/></g>
<g><path style="opacity:1" fill="#8ab0c5" d="M 250.5,44.5 C 250.5,44.8333 250.5,45.1667 250.5,45.5C 249.539,47.2646 249.205,49.2646 249.5,51.5C 248.539,49.7354 248.205,47.7354 248.5,45.5C 248.842,44.6618 249.508,44.3284 250.5,44.5 Z"/></g>
<g><path style="opacity:1" fill="#a0bed0" d="M 11.5,47.5 C 27.4208,47.8707 43.4208,47.8707 59.5,47.5C 59.3838,50.9103 61.0504,52.2436 64.5,51.5C 64.5,51.8333 64.5,52.1667 64.5,52.5C 57.1667,52.5 49.8333,52.5 42.5,52.5C 42.5,51.1667 42.5,49.8333 42.5,48.5C 41.5,48.5 40.5,48.5 39.5,48.5C 36.8333,48.5 34.1667,48.5 31.5,48.5C 29.0882,48.6941 28.0882,50.0274 28.5,52.5C 28.1667,52.5 27.8333,52.5 27.5,52.5C 20.5,51.8333 13.5,51.1667 6.5,50.5C 8.16667,50.5 9.83333,50.5 11.5,50.5C 11.5,49.5 11.5,48.5 11.5,47.5 Z"/></g>
<g><path style="opacity:1" fill="#8fb3c8" d="M 31.5,48.5 C 34.1667,48.5 36.8333,48.5 39.5,48.5C 39.5,48.8333 39.5,49.1667 39.5,49.5C 36.9407,49.1984 34.6074,49.5318 32.5,50.5C 31.6618,50.8417 31.3284,51.5084 31.5,52.5C 31.1667,52.5 30.8333,52.5 30.5,52.5C 30.4326,51.0413 30.7659,49.7079 31.5,48.5 Z"/></g>
<g><path style="opacity:1" fill="#98b8cc" d="M 31.5,48.5 C 30.7659,49.7079 30.4326,51.0413 30.5,52.5C 29.8333,52.5 29.1667,52.5 28.5,52.5C 28.0882,50.0274 29.0882,48.6941 31.5,48.5 Z"/></g>
<g><path style="opacity:1" fill="#8aafc5" d="M 63.5,44.5 C 64.5,44.5 65.5,44.5 66.5,44.5C 66.5,47.8333 64.8333,49.5 61.5,49.5C 61.5,48.5 61.5,47.5 61.5,46.5C 62.8333,46.5 63.5,45.8333 63.5,44.5 Z"/></g>
<g><path style="opacity:1" fill="#97b8cb" d="M 63.5,42.5 C 66.9103,42.3838 68.2436,44.0504 67.5,47.5C 66.5,48.8333 65.5,50.1667 64.5,51.5C 61.0504,52.2436 59.3838,50.9103 59.5,47.5C 59.5,47.1667 59.5,46.8333 59.5,46.5C 60.1667,46.5 60.8333,46.5 61.5,46.5C 61.5,47.5 61.5,48.5 61.5,49.5C 64.8333,49.5 66.5,47.8333 66.5,44.5C 65.5,44.5 64.5,44.5 63.5,44.5C 63.5,43.8333 63.5,43.1667 63.5,42.5 Z"/></g>
<g><path style="opacity:1" fill="#a7c3d3" d="M 157.5,44.5 C 158.833,46.8333 158.833,49.1667 157.5,51.5C 156.167,49.1667 156.167,46.8333 157.5,44.5 Z"/></g>
<g><path style="opacity:1" fill="#a1bfd0" d="M 161.5,48.5 C 163.176,49.1834 163.843,50.5168 163.5,52.5C 162.833,52.5 162.167,52.5 161.5,52.5C 161.5,51.1667 161.5,49.8333 161.5,48.5 Z"/></g>
<g><path style="opacity:1" fill="#98b9cc" d="M 161.5,43.5 C 162.167,43.5 162.833,43.5 163.5,43.5C 163.565,46.4282 164.232,49.0948 165.5,51.5C 165.5,52.1667 165.5,52.8333 165.5,53.5C 164.833,53.1667 164.167,52.8333 163.5,52.5C 163.843,50.5168 163.176,49.1834 161.5,48.5C 161.5,46.8333 161.5,45.1667 161.5,43.5 Z"/></g>
<g><path style="opacity:1" fill="#86adc3" d="M 168.5,43.5 C 169.477,46.2869 169.81,49.2869 169.5,52.5C 168.833,52.5 168.167,52.5 167.5,52.5C 167.5,52.1667 167.5,51.8333 167.5,51.5C 167.629,49.7839 167.962,48.1172 168.5,46.5C 168.5,45.5 168.5,44.5 168.5,43.5 Z"/></g>
<g><path style="opacity:1" fill="#a7c3d3" d="M 191.5,44.5 C 192.833,46.8333 192.833,49.1667 191.5,51.5C 190.167,49.1667 190.167,46.8333 191.5,44.5 Z"/></g>
<g><path style="opacity:1" fill="#98b9cc" d="M 201.5,43.5 C 202.167,43.5 202.5,43.8333 202.5,44.5C 201.167,44.5 199.833,44.5 198.5,44.5C 198.232,46.099 198.566,47.4324 199.5,48.5C 199.5,49.5 199.5,50.5 199.5,51.5C 199.167,51.5 198.833,51.5 198.5,51.5C 198.027,50.0937 197.027,49.427 195.5,49.5C 195.5,47.8333 195.5,46.1667 195.5,44.5C 197.435,43.8505 199.435,43.5172 201.5,43.5 Z"/></g>
<g><path style="opacity:1" fill="#9ebdce" d="M 229.5,47.5 C 230.167,48.1667 230.833,48.8333 231.5,49.5C 231.833,49.5 232.167,49.5 232.5,49.5C 232.5,50.1667 232.5,50.8333 232.5,51.5C 230.088,51.3059 229.088,49.9726 229.5,47.5 Z"/></g>
<g><path style="opacity:1" fill="#7fa8bf" d="M 252.5,44.5 C 253.767,47.272 253.767,49.9387 252.5,52.5C 251.833,52.1667 251.167,51.8333 250.5,51.5C 250.167,51.5 249.833,51.5 249.5,51.5C 249.205,49.2646 249.539,47.2646 250.5,45.5C 251.167,45.1667 251.833,44.8333 252.5,44.5 Z"/></g>
<g><path style="opacity:1" fill="#87adc3" d="M 32.5,50.5 C 34.6074,49.5318 36.9407,49.1984 39.5,49.5C 40.404,50.209 40.7373,51.209 40.5,52.5C 39.8333,52.5 39.1667,52.5 38.5,52.5C 38.5,52.1667 38.5,51.8333 38.5,51.5C 36.7354,50.5386 34.7354,50.2053 32.5,50.5 Z"/></g>
<g><path style="opacity:1" fill="#97b9cc" d="M 39.5,49.5 C 39.5,49.1667 39.5,48.8333 39.5,48.5C 40.5,48.5 41.5,48.5 42.5,48.5C 42.5,49.8333 42.5,51.1667 42.5,52.5C 41.8333,52.5 41.1667,52.5 40.5,52.5C 40.7373,51.209 40.404,50.209 39.5,49.5 Z"/></g>
<g><path style="opacity:1" fill="#afc8d7" d="M 153.5,42.5 C 154.833,42.8333 156.167,43.1667 157.5,43.5C 157.5,43.8333 157.5,44.1667 157.5,44.5C 156.167,46.8333 156.167,49.1667 157.5,51.5C 157.5,51.8333 157.5,52.1667 157.5,52.5C 155.208,53.8914 152.708,54.8914 150,55.5C 147.292,54.8914 144.792,53.8914 142.5,52.5C 141.766,51.2921 141.433,49.9587 141.5,48.5C 143.514,48.6085 145.18,47.9418 146.5,46.5C 146.206,51.2196 148.206,52.8863 152.5,51.5C 153.309,49.9291 153.643,48.2624 153.5,46.5C 154.117,46.6107 154.617,46.944 155,47.5C 155.613,45.5048 155.113,43.8381 153.5,42.5 Z"/></g>
<g><path style="opacity:1" fill="#bed3df" d="M 2.5,49.5 C 3.83333,50.1667 4.83333,51.1667 5.5,52.5C 3.5,52.5 2.5,51.5 2.5,49.5 Z"/></g>
<g><path style="opacity:1" fill="#80a8c0" d="M 32.5,50.5 C 34.7354,50.2053 36.7354,50.5386 38.5,51.5C 36.2646,51.2053 34.2646,51.5386 32.5,52.5C 32.1667,52.5 31.8333,52.5 31.5,52.5C 31.3284,51.5084 31.6618,50.8417 32.5,50.5 Z"/></g>
<g><path style="opacity:1" fill="#a6c2d2" d="M 195.5,49.5 C 197.027,49.427 198.027,50.0937 198.5,51.5C 197.5,51.5 196.5,51.5 195.5,51.5C 195.5,50.8333 195.5,50.1667 195.5,49.5 Z"/></g>
<g><path style="opacity:1" fill="#8cb0c6" d="M 238.5,45.5 C 239.5,45.8333 240.167,46.5 240.5,47.5C 240.5,48.8333 240.5,50.1667 240.5,51.5C 238.833,51.5 237.167,51.5 235.5,51.5C 234.833,51.5 234.5,51.1667 234.5,50.5C 236.167,50.5 237.833,50.5 239.5,50.5C 239.737,49.209 239.404,48.209 238.5,47.5C 238.5,46.8333 238.5,46.1667 238.5,45.5 Z"/></g>
<g><path style="opacity:1" fill="#a5c2d3" d="M 2.5,5.5 C 2.83333,5.5 3.16667,5.5 3.5,5.5C 3.5,6.83333 3.5,8.16667 3.5,9.5C 3.17119,22.6774 3.50452,35.6774 4.5,48.5C 4.84171,49.3382 5.50838,49.6716 6.5,49.5C 6.5,49.8333 6.5,50.1667 6.5,50.5C 13.5,51.1667 20.5,51.8333 27.5,52.5C 20.1667,52.5 12.8333,52.5 5.5,52.5C 4.83333,51.1667 3.83333,50.1667 2.5,49.5C 2.5,34.8333 2.5,20.1667 2.5,5.5 Z"/></g>
<g><path style="opacity:1" fill="#bed3df" d="M 68.5,50.5 C 68.0269,51.9063 67.0269,52.573 65.5,52.5C 65.9731,51.0937 66.9731,50.427 68.5,50.5 Z"/></g>
<g><path style="opacity:1" fill="#afc9d7" d="M 195.5,52.5 C 195.5,52.1667 195.5,51.8333 195.5,51.5C 196.5,51.5 197.5,51.5 198.5,51.5C 198.833,51.5 199.167,51.5 199.5,51.5C 199.5,52.1667 199.5,52.8333 199.5,53.5C 198.292,52.7659 196.959,52.4326 195.5,52.5 Z"/></g>
<g><path style="opacity:1" fill="#acc7d6" d="M 228.5,47.5 C 228.833,47.5 229.167,47.5 229.5,47.5C 229.088,49.9726 230.088,51.3059 232.5,51.5C 232.5,52.1667 232.5,52.8333 232.5,53.5C 231.292,52.7659 229.959,52.4326 228.5,52.5C 228.5,50.8333 228.5,49.1667 228.5,47.5 Z"/></g>
<g><path style="opacity:1" fill="#74a1ba" d="M 38.5,51.5 C 38.5,51.8333 38.5,52.1667 38.5,52.5C 38.5,53.8333 38.5,55.1667 38.5,56.5C 36.842,58.6536 34.842,58.9869 32.5,57.5C 32.5,57.1667 32.5,56.8333 32.5,56.5C 32.5,55.1667 32.5,53.8333 32.5,52.5C 34.2646,51.5386 36.2646,51.2053 38.5,51.5 Z"/></g>
<g><path style="opacity:1" fill="#b3cbd9" d="M 161.5,53.5 C 161.5,53.1667 161.5,52.8333 161.5,52.5C 162.167,52.5 162.833,52.5 163.5,52.5C 164.167,52.8333 164.833,53.1667 165.5,53.5C 165.5,54.1667 165.5,54.8333 165.5,55.5C 164.395,54.3995 163.062,53.7329 161.5,53.5 Z"/></g>
<g><path style="opacity:1" fill="#b1c9d8" d="M 171.5,51.5 C 172.338,51.8417 172.672,52.5084 172.5,53.5C 170.973,53.427 169.973,54.0937 169.5,55.5C 168.599,54.7095 167.932,53.7095 167.5,52.5C 168.167,52.5 168.833,52.5 169.5,52.5C 170.167,52.1667 170.833,51.8333 171.5,51.5 Z"/></g>
<g><path style="opacity:1" fill="#9fbecf" d="M 207.5,51.5 C 208.5,51.5 209.5,51.5 210.5,51.5C 210.5,52.1667 210.5,52.8333 210.5,53.5C 208.5,53.5 206.5,53.5 204.5,53.5C 203.833,53.5 203.5,53.1667 203.5,52.5C 205.099,52.7678 206.432,52.4345 207.5,51.5 Z"/></g>
<g><path style="opacity:1" fill="#b2cad9" d="M 260.5,51.5 C 263.156,52.158 265.822,52.8246 268.5,53.5C 270.512,53.1604 272.512,52.8271 274.5,52.5C 270.849,56.1039 266.849,56.4372 262.5,53.5C 261.5,53.1667 260.833,52.5 260.5,51.5 Z"/></g>
<g><path style="opacity:1" fill="#c2d5e0" d="M 131.5,52.5 C 132.833,52.5 134.167,52.5 135.5,52.5C 135.5,53.1667 135.5,53.8333 135.5,54.5C 134.5,54.5 133.5,54.5 132.5,54.5C 131.662,54.1583 131.328,53.4916 131.5,52.5 Z"/></g>
<g><path style="opacity:1" fill="#bdd2de" d="M 176.5,52.5 C 178.792,53.8914 181.292,54.8914 184,55.5C 185.876,55.4753 187.376,54.8086 188.5,53.5C 189.391,52.8902 190.391,52.5569 191.5,52.5C 190.071,55.7481 187.571,57.0814 184,56.5C 180.429,57.0814 177.929,55.7481 176.5,52.5 Z"/></g>
<g><path style="opacity:1" fill="#b2cad9" d="M 176.5,52.5 C 176.5,52.1667 176.5,51.8333 176.5,51.5C 180.33,53.0003 184.33,53.6669 188.5,53.5C 187.376,54.8086 185.876,55.4753 184,55.5C 181.292,54.8914 178.792,53.8914 176.5,52.5 Z"/></g>
<g><path style="opacity:1" fill="#c1d4e0" d="M 195.5,52.5 C 196.959,52.4326 198.292,52.7659 199.5,53.5C 199.5,53.8333 199.5,54.1667 199.5,54.5C 198.167,54.5 196.833,54.5 195.5,54.5C 195.5,53.8333 195.5,53.1667 195.5,52.5 Z"/></g>
<g><path style="opacity:1" fill="#abc5d5" d="M 213.5,52.5 C 214.5,52.5 215.5,52.5 216.5,52.5C 216.5,52.8333 216.5,53.1667 216.5,53.5C 216.5,53.8333 216.5,54.1667 216.5,54.5C 215.5,54.5 214.5,54.5 213.5,54.5C 213.5,53.8333 213.5,53.1667 213.5,52.5 Z"/></g>
<g><path style="opacity:1" fill="#a3c0d1" d="M 220.5,52.5 C 221.167,52.5 221.833,52.5 222.5,52.5C 221.313,54.9754 219.313,55.9754 216.5,55.5C 216.5,55.1667 216.5,54.8333 216.5,54.5C 216.5,54.1667 216.5,53.8333 216.5,53.5C 218.099,53.7678 219.432,53.4345 220.5,52.5 Z"/></g>
<g><path style="opacity:1" fill="#bed3df" d="M 228.5,52.5 C 229.959,52.4326 231.292,52.7659 232.5,53.5C 232.5,53.8333 232.5,54.1667 232.5,54.5C 231.167,54.5 229.833,54.5 228.5,54.5C 228.5,53.8333 228.5,53.1667 228.5,52.5 Z"/></g>
<g><path style="opacity:1" fill="#b2cad9" d="M 246.5,52.5 C 247.959,52.4326 249.292,52.7659 250.5,53.5C 250.5,54.1667 250.5,54.8333 250.5,55.5C 249.292,54.7659 247.959,54.4326 246.5,54.5C 246.5,53.8333 246.5,53.1667 246.5,52.5 Z"/></g>
<g><path style="opacity:1" fill="#b2cad9" d="M 254.5,49.5 C 256.262,50.2623 257.262,51.5956 257.5,53.5C 256.391,53.5569 255.391,53.8902 254.5,54.5C 253.833,54.5 253.5,54.1667 253.5,53.5C 254.434,52.4324 254.768,51.099 254.5,49.5 Z"/></g>
<g><path style="opacity:1" fill="#bed3df" d="M 142.5,52.5 C 144.792,53.8914 147.292,54.8914 150,55.5C 152.708,54.8914 155.208,53.8914 157.5,52.5C 156.071,55.7481 153.571,57.0814 150,56.5C 146.429,57.0814 143.929,55.7481 142.5,52.5 Z"/></g>
<g><path style="opacity:1" fill="#c9dae4" d="M 161.5,53.5 C 163.062,53.7329 164.395,54.3995 165.5,55.5C 164.432,56.4345 163.099,56.7678 161.5,56.5C 161.5,55.5 161.5,54.5 161.5,53.5 Z"/></g>
<g><path style="opacity:1" fill="#cbdce5" d="M 172.5,53.5 C 172.804,54.1499 173.137,54.8165 173.5,55.5C 172.042,56.782 170.708,56.782 169.5,55.5C 169.973,54.0937 170.973,53.427 172.5,53.5 Z"/></g>
<g><path style="opacity:1" fill="#b8cfdc" d="M 204.5,53.5 C 206.5,53.5 208.5,53.5 210.5,53.5C 210.5,54.5 210.5,55.5 210.5,56.5C 207.68,56.913 205.68,55.913 204.5,53.5 Z"/></g>
<g><path style="opacity:1" fill="#bad0dc" d="M 222.5,52.5 C 224.179,52.2852 225.179,52.9519 225.5,54.5C 223.62,54.2291 222.287,54.8958 221.5,56.5C 219.833,56.5 218.167,56.5 216.5,56.5C 216.5,56.1667 216.5,55.8333 216.5,55.5C 219.313,55.9754 221.313,54.9754 222.5,52.5 Z"/></g>
<g><path style="opacity:1" fill="#b8cfdc" d="M 237.5,53.5 C 239.5,53.5 241.5,53.5 243.5,53.5C 243.5,54.5 243.5,55.5 243.5,56.5C 241.801,56.6602 240.134,56.4935 238.5,56C 237.748,55.3292 237.414,54.4959 237.5,53.5 Z"/></g>
<g><path style="opacity:1" fill="#c4d6e2" d="M 257.5,53.5 C 261.041,55.2649 261.041,56.2649 257.5,56.5C 255.97,56.3601 254.97,55.6935 254.5,54.5C 255.391,53.8902 256.391,53.5569 257.5,53.5 Z"/></g>
<g><path style="opacity:1" fill="#bdd2de" d="M 276.5,45.5 C 277.964,54.5191 273.964,58.0191 264.5,56C 263.619,55.2917 262.953,54.4584 262.5,53.5C 266.849,56.4372 270.849,56.1039 274.5,52.5C 276.163,50.5615 276.829,48.2282 276.5,45.5 Z"/></g>
<g><path style="opacity:1" fill="#d8e5ec" d="M 132.5,54.5 C 133.5,54.5 134.5,54.5 135.5,54.5C 134.26,56.9845 133.26,56.9845 132.5,54.5 Z"/></g>
<g><path style="opacity:1" fill="#d3e1e9" d="M 195.5,54.5 C 196.833,54.5 198.167,54.5 199.5,54.5C 199.38,55.5862 198.713,56.2528 197.5,56.5C 196.287,56.2528 195.62,55.5862 195.5,54.5 Z"/></g>
<g><path style="opacity:1" fill="#c0d4df" d="M 213.5,54.5 C 214.5,54.5 215.5,54.5 216.5,54.5C 216.5,54.8333 216.5,55.1667 216.5,55.5C 216.5,55.8333 216.5,56.1667 216.5,56.5C 214.821,56.7148 213.821,56.0481 213.5,54.5 Z"/></g>
<g><path style="opacity:1" fill="#cadbe4" d="M 225.5,54.5 C 224.817,56.1765 223.483,56.8432 221.5,56.5C 222.287,54.8958 223.62,54.2291 225.5,54.5 Z"/></g>
<g><path style="opacity:1" fill="#d1dfe8" d="M 228.5,54.5 C 229.833,54.5 231.167,54.5 232.5,54.5C 232.38,55.5862 231.713,56.2528 230.5,56.5C 229.287,56.2528 228.62,55.5862 228.5,54.5 Z"/></g>
<g><path style="opacity:1" fill="#cadbe5" d="M 246.5,54.5 C 247.959,54.4326 249.292,54.7659 250.5,55.5C 250.083,56.1239 249.416,56.4573 248.5,56.5C 247.287,56.2528 246.62,55.5862 246.5,54.5 Z"/></g>
<g><path style="opacity:1" fill="#c9dae4" d="M 48.5,57.5 C 49.9953,57.4148 50.9953,58.0815 51.5,59.5C 51.1207,61.2131 50.1207,62.2131 48.5,62.5C 48.5,60.8333 48.5,59.1667 48.5,57.5 Z"/></g>
<g><path style="opacity:1" fill="#cedee7" d="M 21.5,57.5 C 21.5,59.1667 21.5,60.8333 21.5,62.5C 18.8333,60.8333 18.8333,59.1667 21.5,57.5 Z"/></g>
<g><path style="opacity:1" fill="#a9c5d4" d="M 23.5,56.5 C 24.1667,56.5 24.8333,56.5 25.5,56.5C 25.3253,58.6208 25.6586,60.6208 26.5,62.5C 25.5,62.5 24.5,62.5 23.5,62.5C 23.5,60.5 23.5,58.5 23.5,56.5 Z"/></g>
<g><path style="opacity:1" fill="#b3cbd9" d="M 46.5,56.5 C 47.4916,56.3284 48.1583,56.6618 48.5,57.5C 48.5,59.1667 48.5,60.8333 48.5,62.5C 47.8333,62.5 47.1667,62.5 46.5,62.5C 46.5,60.5 46.5,58.5 46.5,56.5 Z"/></g>
<g><path style="opacity:1" fill="#bcd1dd" d="M 23.5,56.5 C 23.5,58.5 23.5,60.5 23.5,62.5C 22.8333,62.5 22.1667,62.5 21.5,62.5C 21.5,60.8333 21.5,59.1667 21.5,57.5C 22.1667,57.1667 22.8333,56.8333 23.5,56.5 Z"/></g>
<g><path style="opacity:1" fill="#9fbed0" d="M 25.5,56.5 C 26.5,56.5 27.5,56.5 28.5,56.5C 28.4894,58.0174 27.8228,59.1841 26.5,60C 32.0527,61.5699 37.7194,61.9032 43.5,61C 43.9662,59.7012 43.9662,58.2012 43.5,56.5C 44.5,56.5 45.5,56.5 46.5,56.5C 46.5,58.5 46.5,60.5 46.5,62.5C 39.8333,62.5 33.1667,62.5 26.5,62.5C 25.6586,60.6208 25.3253,58.6208 25.5,56.5 Z"/></g>
<g><path style="opacity:1" fill="#95b7ca" d="M 28.5,56.5 C 28.8333,56.5 29.1667,56.5 29.5,56.5C 29.1568,58.4832 29.8235,59.8166 31.5,60.5C 34.5184,60.6646 37.5184,60.498 40.5,60C 41.3366,58.9887 41.67,57.8221 41.5,56.5C 42.1667,56.5 42.8333,56.5 43.5,56.5C 43.9662,58.2012 43.9662,59.7012 43.5,61C 37.7194,61.9032 32.0527,61.5699 26.5,60C 27.8228,59.1841 28.4894,58.0174 28.5,56.5 Z"/></g>
<g><path style="opacity:1" fill="#86adc3" d="M 31.5,56.5 C 31.8333,56.5 32.1667,56.5 32.5,56.5C 32.5,56.8333 32.5,57.1667 32.5,57.5C 32.6107,58.1174 32.944,58.6174 33.5,59C 35.4727,59.4955 37.4727,59.6621 39.5,59.5C 39.5,58.5 39.5,57.5 39.5,56.5C 40.1667,56.5 40.8333,56.5 41.5,56.5C 41.67,57.8221 41.3366,58.9887 40.5,60C 37.5184,60.498 34.5184,60.6646 31.5,60.5C 31.5,59.1667 31.5,57.8333 31.5,56.5 Z"/></g>
<g><path style="opacity:1" fill="#7ca6be" d="M 38.5,56.5 C 38.8333,56.5 39.1667,56.5 39.5,56.5C 39.5,57.5 39.5,58.5 39.5,59.5C 37.4727,59.6621 35.4727,59.4955 33.5,59C 32.944,58.6174 32.6107,58.1174 32.5,57.5C 34.842,58.9869 36.842,58.6536 38.5,56.5 Z"/></g>
<g><path style="opacity:1" fill="#8eb2c7" d="M 29.5,56.5 C 30.1667,56.5 30.8333,56.5 31.5,56.5C 31.5,57.8333 31.5,59.1667 31.5,60.5C 29.8235,59.8166 29.1568,58.4832 29.5,56.5 Z"/></g>
<g><path style="opacity:1" fill="#e4ecf1" d="M 96.5,60.5 C 97.5,60.5 98.5,60.5 99.5,60.5C 99.5,61.5 99.5,62.5 99.5,63.5C 98.5,63.5 97.5,63.5 96.5,63.5C 96.5,62.5 96.5,61.5 96.5,60.5 Z"/></g>
</svg>
